<svg xmlns="http://www.w3.org/2000/svg" xmlns:xlink="http://www.w3.org/1999/xlink" version="1.1" x="0px" y="0px" viewBox="-182.877 0 500 499.989" enable-background="new -182.877 0 500 499.989" xml:space="preserve" style="fill: rgb(0, 0, 0);">
<g id="__id35_sfkaqvl1w">
	<g>
		<path d="M66.551,0c0.382,0,0.762,0,1.146,0c82.663,83.616,165.799,166.754,249.426,249.422    c0,0.384,0,0.764,0,1.147C233.496,333.237,150.36,416.376,67.697,499.989c-0.384,0-0.768,0-1.146,0    C-16.116,416.376-99.254,333.237-182.877,250.57c0-0.384,0-0.764,0-1.147C-99.254,166.754-16.116,83.616,66.551,0z M67.697,54.918    C37.509,82.632,3.289,117.032-32.991,153.316c-24.002,23.997-47.633,47.63-72.084,72.077    c-5.892,5.896-24.142,22.403-24.027,25.174c0.038,0.867,9.226,8.07,12.584,11.432c61.951,61.96,122.404,125.025,184.211,183.068    c65.125-64.924,131.289-128.809,194.501-195.648C197.84,184.111,133.006,119.277,67.697,54.918z" style="fill: rgb(15, 122, 138);"></path>
	</g>
</g>
<g id="__id36_sfkaqvl1w">
	<path d="M66.314,76.427c0.38,0,0.76,0,1.14,0c57.113,58.064,114.698,115.654,172.773,172.77   c-55.398,59.78-115.278,115.08-171.626,173.912C8.441,367.325-47.242,307.071-106.45,250.343c0-0.384,0-0.765,0-1.146   C-48.389,192.082,9.199,134.492,66.314,76.427z M67.455,117.621c-44.523,44.328-90.1,87.615-132.719,133.866   c45.096,42.621,86.673,88.763,132.719,130.431c44.15-43.959,89.336-86.864,131.582-132.721   C155.656,204.856,111.787,161,67.455,117.621z" style="fill: rgb(255, 255, 255);"></path>
</g>
<g id="__id37_sfkaqvl1w">
	
		<rect x="4.249" y="187.12" transform="matrix(-0.7071 -0.7071 0.7071 -0.7071 -62.2448 474.0993)" width="125.635" height="125.642" style="fill: rgb(15, 122, 138);"></rect>
</g>
</svg>